<svg xmlns="http://www.w3.org/2000/svg" xmlns:xlink="http://www.w3.org/1999/xlink" width="500" zoomAndPan="magnify" viewBox="0 0 375 374.999991" height="500" preserveAspectRatio="xMidYMid meet" version="1.2"><defs><clipPath id="0f2a50885c"><path d="M 117 71 L 243 71 L 243 286 L 117 286 Z M 117 71 "/></clipPath><clipPath id="53c8db0a0e"><path d="M 2.886719 181.789062 L 181.609375 3.066406 L 371.996094 193.457031 L 193.273438 372.175781 Z M 2.886719 181.789062 "/></clipPath><clipPath id="24e38ee33a"><path d="M 2.886719 181.789062 L 181.609375 3.066406 L 371.996094 193.457031 L 193.273438 372.175781 Z M 2.886719 181.789062 "/></clipPath><clipPath id="f46f40eb83"><path d="M 82 6 L 194 6 L 194 196 L 82 196 Z M 82 6 "/></clipPath><clipPath id="b00fd3240f"><path d="M 2.886719 181.789062 L 181.609375 3.066406 L 371.996094 193.457031 L 193.273438 372.175781 Z M 2.886719 181.789062 "/></clipPath><clipPath id="678dc63a2e"><path d="M 2.886719 181.789062 L 181.609375 3.066406 L 371.996094 193.457031 L 193.273438 372.175781 Z M 2.886719 181.789062 "/></clipPath><clipPath id="b8c8fc1e00"><path d="M 48.453125 136.386719 L 181.679688 3.160156 L 242.324219 63.808594 L 109.101562 197.035156 Z M 48.453125 136.386719 "/></clipPath><clipPath id="8dde4ca19f"><path d="M 162 144 L 288 144 L 288 372 L 162 372 Z M 162 144 "/></clipPath><clipPath id="b505f2de35"><path d="M 2.886719 181.789062 L 181.609375 3.066406 L 371.996094 193.457031 L 193.273438 372.175781 Z M 2.886719 181.789062 "/></clipPath><clipPath id="d857d1dcf4"><path d="M 2.886719 181.789062 L 181.609375 3.066406 L 371.996094 193.457031 L 193.273438 372.175781 Z M 2.886719 181.789062 "/></clipPath><clipPath id="ff1437e9b3"><path d="M 119.085938 297.988281 L 275.136719 141.933594 L 348.988281 215.785156 L 192.9375 371.839844 Z M 119.085938 297.988281 "/></clipPath></defs><g id="d793fb75dd"><g clip-rule="nonzero" clip-path="url(#0f2a50885c)"><g clip-rule="nonzero" clip-path="url(#53c8db0a0e)"><g clip-rule="nonzero" clip-path="url(#24e38ee33a)"><path style=" stroke:none;fill-rule:nonzero;fill:#00609e;fill-opacity:1;" d="M 203.199219 165.074219 C 268.835938 114.394531 233.449219 71.898438 233.449219 71.898438 C 233.449219 71.898438 45.589844 205.609375 148.445312 285.476562 C 148.445312 285.476562 106.492188 239.746094 203.199219 165.074219 "/></g></g></g><g clip-rule="nonzero" clip-path="url(#f46f40eb83)"><g clip-rule="nonzero" clip-path="url(#b00fd3240f)"><g clip-rule="nonzero" clip-path="url(#678dc63a2e)"><g clip-rule="nonzero" clip-path="url(#b8c8fc1e00)"><path style=" stroke:none;fill-rule:nonzero;fill:#36a5dd;fill-opacity:1;" d="M 158.179688 89.09375 C 215.414062 42.945312 185 6.488281 185 6.488281 C 185 6.488281 18.445312 125.035156 109.632812 195.839844 C 109.632812 195.839844 71.632812 158.882812 158.179688 89.09375 "/></g></g></g></g><g clip-rule="nonzero" clip-path="url(#8dde4ca19f)"><g clip-rule="nonzero" clip-path="url(#b505f2de35)"><g clip-rule="nonzero" clip-path="url(#d857d1dcf4)"><g clip-rule="nonzero" clip-path="url(#ff1437e9b3)"><path style=" stroke:none;fill-rule:nonzero;fill:#1f396d;fill-opacity:1;" d="M 193.269531 371.503906 C 193.269531 371.503906 160.628906 317.226562 247.6875 243.625 C 312.371094 188.941406 277.753906 144.660156 277.753906 144.660156 C 277.753906 144.660156 91.042969 286.679688 193.269531 371.503906 "/></g></g></g></g></g></svg>